<?xml version="1.0" standalone="no"?>
<!DOCTYPE svg PUBLIC "-//W3C//DTD SVG 20010904//EN"
 "http://www.w3.org/TR/2001/REC-SVG-20010904/DTD/svg10.dtd">
<svg version="1.0" xmlns="http://www.w3.org/2000/svg"
 width="1946.000000pt" height="320.000000pt" viewBox="0 0 1946.000000 320.000000"
 preserveAspectRatio="xMidYMid meet">

<g transform="translate(0.000000,320.000000) scale(0.100000,-0.100000)"
fill="#000000" stroke="none">
<path d="M1828 3189 c-127 -18 -288 -74 -408 -142 -69 -38 -254 -163 -269
-181 -8 -9 -31 -12 -83 -9 -109 7 -173 -20 -263 -111 -39 -39 -86 -98 -104
-131 l-35 -60 -115 0 c-111 0 -119 -1 -182 -33 -108 -55 -170 -125 -244 -277
-86 -177 -106 -245 -112 -381 -6 -127 7 -190 61 -289 30 -54 33 -66 28 -122
-7 -91 5 -146 42 -200 27 -39 36 -68 50 -153 63 -373 249 -632 573 -794 125
-63 252 -82 348 -52 37 11 45 10 112 -21 177 -81 350 -122 553 -130 257 -10
485 40 738 164 92 45 95 46 185 44 194 -4 327 73 493 285 146 186 246 409 269
599 4 33 16 71 25 85 29 42 52 134 49 202 -3 57 0 67 28 106 134 184 169 551
72 758 -30 62 -116 154 -177 187 -90 49 -166 60 -364 53 l-177 -6 -33 29 c-77
66 -251 170 -334 198 -26 9 -33 18 -38 50 -18 95 -81 189 -165 242 -124 80
-340 117 -523 90z m336 -74 c90 -25 167 -68 215 -120 49 -53 71 -100 80 -168
l6 -49 81 -33 c118 -49 237 -122 317 -194 l38 -35 147 12 c220 17 330 -3 427
-76 64 -48 109 -116 138 -206 30 -98 30 -293 -2 -411 -26 -99 -68 -190 -108
-235 -29 -33 -30 -38 -26 -105 6 -81 -7 -137 -42 -189 -16 -23 -25 -51 -25
-75 0 -115 -95 -360 -198 -512 -177 -264 -364 -383 -548 -351 l-58 10 -108
-54 c-212 -107 -390 -153 -619 -161 -237 -8 -431 31 -637 129 l-84 39 -46 -15
c-92 -32 -204 -16 -327 46 -206 104 -373 278 -454 473 -40 95 -78 241 -87 333
-6 56 -13 73 -40 105 -44 52 -59 118 -44 190 11 55 11 56 -34 144 -95 186 -83
329 50 611 42 89 65 124 111 170 99 99 217 136 345 110 l67 -14 26 52 c59 121
161 228 242 255 23 7 65 9 111 6 l74 -6 62 48 c179 141 380 241 566 282 102
23 290 20 384 -6z"/>
<path d="M1862 3070 c-204 -28 -435 -138 -646 -307 l-68 -56 -34 17 c-47 22
-90 20 -149 -8 -68 -31 -126 -100 -178 -208 l-42 -89 -60 8 c-33 3 -96 7 -140
7 -70 1 -86 -3 -134 -29 -80 -44 -132 -111 -192 -244 -69 -155 -93 -252 -87
-352 4 -68 11 -90 58 -187 48 -101 52 -113 41 -143 -14 -41 -14 -104 0 -132 6
-12 24 -35 39 -52 23 -26 29 -45 40 -130 37 -299 160 -517 381 -672 174 -123
324 -159 429 -103 l35 18 85 -43 c200 -100 358 -138 585 -139 244 -1 418 42
654 160 114 57 126 61 159 52 63 -18 160 -6 232 28 212 100 447 481 476 773 5
47 13 74 30 93 33 40 47 118 34 190 l-11 60 39 42 c50 54 87 134 113 243 28
118 24 309 -10 394 -31 80 -87 140 -163 175 -59 27 -72 29 -188 29 -69 0 -166
-4 -216 -8 l-92 -8 -51 45 c-100 89 -227 163 -366 215 l-70 26 -1 60 c-2 165
-141 261 -399 279 -38 2 -98 0 -133 -4z m258 -112 c132 -32 199 -115 174 -217
-9 -37 -61 -81 -95 -81 -15 0 -17 7 -12 54 5 47 2 61 -21 99 -33 57 -87 84
-181 93 -134 12 -392 -52 -572 -142 -98 -49 -80 -29 44 47 241 147 459 195
663 147z m294 -409 c14 -7 29 -24 34 -38 18 -52 -14 -91 -101 -121 -67 -24
-110 -25 -127 -5 -23 27 47 124 115 159 36 19 46 20 79 5z m-1091 -49 c50 -46
83 -100 74 -124 -16 -41 -198 10 -227 64 -26 48 11 100 71 100 32 0 47 -7 82
-40z m1988 -146 c37 -11 66 -28 90 -54 65 -68 54 -123 -26 -135 -56 -9 -191
18 -262 51 -51 25 -103 74 -103 98 0 19 23 44 45 49 50 12 204 6 256 -9z
m-2629 -30 l57 -6 -15 -37 c-26 -64 -86 -141 -128 -166 -55 -31 -101 -39 -161
-25 -58 13 -95 43 -95 77 0 49 74 134 140 162 24 10 82 9 202 -5z m1848 -20
c206 -58 361 -216 376 -385 8 -84 -1 -113 -87 -265 -38 -66 -69 -127 -69 -136
0 -12 -17 -17 -72 -22 -40 -3 -88 -9 -106 -12 l-34 -7 30 42 c47 65 65 131 60
216 -8 119 -68 214 -168 262 l-45 22 45 0 c91 1 201 -77 231 -165 7 -22 13
-67 13 -101 0 -35 3 -63 8 -63 5 0 18 15 29 33 30 47 23 172 -14 243 -57 111
-163 170 -291 162 -159 -11 -269 -118 -317 -308 -9 -34 -14 -102 -13 -178 l1
-124 -25 5 c-26 5 -146 -21 -219 -47 -41 -14 -44 -14 -129 20 -83 34 -105 37
-146 19 -17 -7 -18 2 -18 101 0 175 -36 288 -117 375 -91 97 -217 133 -334 94
-69 -23 -149 -98 -179 -167 -42 -98 -34 -221 16 -255 20 -13 20 -11 16 46 -8
108 38 196 128 245 44 24 150 48 150 33 0 -3 -20 -15 -45 -27 -24 -12 -58 -38
-76 -58 -89 -101 -110 -245 -53 -360 17 -34 28 -62 24 -62 -3 0 -31 9 -63 20
-31 11 -63 20 -72 20 -8 0 -15 8 -15 19 0 10 -34 89 -76 175 -73 151 -76 160
-72 216 9 121 129 299 242 358 45 23 63 26 146 26 87 0 100 -2 155 -31 73 -37
138 -100 170 -163 12 -25 41 -106 63 -180 80 -264 114 -326 188 -350 59 -20
146 -8 193 24 44 31 54 54 66 156 28 222 92 405 171 484 74 74 187 90 334 50z
m613 -193 c105 -8 117 -14 117 -63 0 -17 -11 -35 -31 -53 -37 -30 -29 -52 13
-36 35 13 68 58 68 92 0 37 12 37 43 0 57 -68 38 -220 -37 -290 -14 -14 -28
-23 -29 -20 -2 2 -22 36 -45 74 -45 78 -117 165 -136 165 -7 0 -34 34 -60 76
-43 69 -45 76 -24 70 13 -4 67 -11 121 -15z m-2753 -140 c-27 -51 5 -171 45
-171 19 0 19 19 0 44 -28 37 -14 115 24 136 20 10 57 -3 110 -38 10 -7 -7 -37
-75 -135 -49 -68 -94 -133 -100 -143 -9 -15 -16 -7 -47 58 -25 50 -37 89 -37
117 0 48 30 113 62 135 29 20 31 20 18 -3z m2083 -109 c26 -23 23 -87 -5 -106
-53 -37 -118 -5 -118 57 0 66 71 95 123 49z m-1091 -29 c24 -22 24 -77 -2
-103 -59 -59 -152 27 -100 93 25 32 73 37 102 10z m-252 -239 c11 -30 17 -54
14 -54 -11 0 -43 87 -43 115 1 19 3 23 6 11 3 -10 13 -43 23 -72z m10 -170
c118 -30 167 -37 265 -40 116 -3 120 -4 123 -26 5 -31 20 -48 43 -48 10 0 40
-16 66 -36 27 -20 72 -50 101 -66 62 -35 67 -60 26 -120 -58 -84 -181 -130
-286 -109 -101 21 -222 110 -294 215 -30 46 -32 52 -18 67 9 10 11 19 5 23
-18 12 -58 -13 -71 -43 -14 -35 -8 -50 13 -33 11 9 17 5 29 -21 35 -73 107
-155 176 -201 54 -36 73 -55 82 -82 18 -52 57 -94 89 -94 34 0 52 14 84 66 19
31 35 43 68 53 56 16 142 72 170 111 l22 30 34 -40 c39 -45 134 -96 199 -106
39 -5 47 -11 63 -43 28 -53 54 -73 92 -69 37 3 76 49 86 101 4 21 17 33 49 49
92 43 173 141 189 230 5 26 11 35 21 31 21 -8 17 24 -6 47 -24 24 -70 27 -70
5 0 -8 7 -15 15 -15 37 0 -3 -97 -69 -168 -128 -137 -344 -157 -494 -45 -32
24 -72 89 -72 117 0 8 33 34 73 57 39 23 90 53 112 67 22 14 53 28 70 32 27 5
30 10 33 51 l3 46 69 -5 c39 -2 161 5 285 18 199 22 217 22 232 7 26 -25 27
-111 4 -224 -29 -138 -28 -177 5 -210 24 -24 30 -25 98 -21 85 6 159 37 225
94 45 39 126 154 150 212 38 91 37 -33 0 -171 -64 -235 -285 -534 -428 -580
-91 -29 -169 -16 -205 34 -22 32 -20 53 9 87 31 37 31 42 1 42 -51 0 -86 -94
-56 -150 9 -16 -3 -25 -98 -73 -397 -203 -800 -213 -1167 -29 -85 42 -130 76
-218 164 -65 65 -97 83 -97 56 0 -7 31 -49 70 -93 l69 -80 -22 -17 c-66 -51
-192 -13 -362 107 -187 133 -304 360 -331 644 -9 92 10 95 37 5 38 -125 134
-232 254 -285 180 -80 335 -59 335 45 0 13 -16 57 -35 97 -41 87 -80 245 -72
295 7 44 32 74 61 74 12 0 87 -16 166 -36z m364 -509 c25 -4 46 -10 46 -14 0
-3 -10 -19 -23 -35 -28 -34 -54 -30 -80 13 -21 35 -22 55 -3 48 7 -3 34 -9 60
-12z m765 -14 c-14 -39 -43 -64 -66 -57 -16 5 -53 54 -53 70 0 3 24 7 53 9 28
2 57 4 64 5 9 2 9 -5 2 -27z"/>
<path d="M1504 1255 c-8 -19 12 -36 33 -28 19 7 12 37 -10 41 -9 2 -20 -4 -23
-13z"/>
<path d="M2144 1259 c-8 -14 21 -43 35 -35 6 4 11 16 11 27 0 21 -34 27 -46 8z"/>
<path d="M1630 1151 c0 -27 19 -36 37 -18 18 18 9 37 -18 37 -12 0 -19 -7 -19
-19z"/>
<path d="M2017 1156 c-7 -17 18 -40 33 -31 5 3 10 15 10 26 0 23 -35 27 -43 5z"/>
<path d="M1517 1093 c-15 -14 -7 -43 12 -43 26 0 36 17 21 35 -14 16 -23 19
-33 8z"/>
<path d="M2147 1093 c-15 -14 -7 -43 12 -43 26 0 36 17 21 35 -14 16 -23 19
-33 8z"/>
<path d="M17211 2520 c-75 -16 -143 -41 -224 -83 -309 -159 -388 -532 -163
-774 l57 -62 -68 -69 c-105 -104 -153 -220 -153 -365 0 -358 383 -617 839
-567 125 14 211 39 315 93 77 40 176 124 224 192 21 29 22 29 34 10 26 -45
117 -131 184 -175 147 -96 373 -144 575 -120 272 31 484 163 577 359 32 67 36
84 40 182 4 89 1 119 -17 177 -25 85 -85 177 -153 236 l-51 45 52 53 c138 140
174 358 91 537 -45 95 -160 205 -270 259 -134 66 -189 77 -380 77 -187 0 -268
-17 -390 -80 -115 -61 -224 -168 -260 -256 l-13 -29 -36 61 c-71 121 -215 228
-376 279 -58 19 -98 23 -230 26 -88 2 -180 -1 -204 -6z m294 -459 c120 -54
122 -169 5 -229 -38 -20 -57 -23 -125 -20 -94 4 -148 27 -183 79 -86 126 131
247 303 170z m1345 -7 c78 -43 99 -102 57 -165 -45 -69 -169 -99 -279 -69 -46
13 -104 66 -114 105 -9 35 18 89 58 118 69 51 195 56 278 11z m-682 -407 l47
-48 -50 -47 c-28 -26 -64 -64 -81 -86 l-30 -39 -38 51 c-20 28 -56 67 -79 86
l-41 34 58 63 c32 34 67 81 78 105 l21 42 34 -56 c19 -31 55 -78 81 -105z
m-634 -301 c156 -76 123 -246 -57 -293 -107 -27 -215 -4 -283 61 -125 120 -1
274 213 263 52 -3 87 -11 127 -31z m1338 -3 c42 -22 58 -38 77 -76 21 -44 23
-52 12 -89 -25 -84 -112 -132 -236 -132 -125 0 -208 44 -241 129 -15 41 -15
45 4 87 48 110 251 153 384 81z"/>
</g>
</svg>
